<svg width="500" height="500" viewBox="0 0 500 500" fill="none" xmlns="http://www.w3.org/2000/svg">
<path d="M203.255 375L301.255 128" stroke="url(#paint0_linear_2456_11)" stroke-width="40"/>
<path d="M363.234 249.353V266.876C349.985 266.876 340.733 269.62 335.481 275.108C330.228 280.596 327.601 289.612 327.601 302.156V336.025C327.601 348.02 326.229 358.095 323.485 366.249C320.82 374.481 316.704 381.066 311.137 386.006C305.571 390.945 298.515 394.512 289.969 396.707C281.423 398.902 271.349 400 259.746 400V372.129C268.84 372.129 275.935 370.757 281.031 368.013C286.127 365.347 289.655 361.192 291.615 355.547C293.654 349.98 294.673 342.885 294.673 334.261V291.454C294.673 285.417 295.575 279.851 297.378 274.755C299.181 269.581 302.513 265.112 307.374 261.348C312.235 257.507 319.173 254.567 328.189 252.528C337.205 250.412 348.887 249.353 363.234 249.353ZM259.746 100C271.349 100 281.423 101.098 289.969 103.293C298.515 105.488 305.571 109.055 311.137 113.995C316.704 118.934 320.82 125.519 323.485 133.751C326.229 141.905 327.601 151.98 327.601 163.975V197.726C327.601 210.349 330.228 219.404 335.481 224.892C340.733 230.302 349.985 233.007 363.234 233.007V250.647C348.887 250.647 337.205 249.588 328.189 247.472C319.173 245.355 312.235 242.415 307.374 238.652C302.513 234.888 299.181 230.459 297.378 225.363C295.575 220.188 294.673 214.583 294.673 208.546V165.739C294.673 157.036 293.654 149.902 291.615 144.336C289.655 138.691 286.127 134.535 281.031 131.87C275.935 129.204 268.84 127.871 259.746 127.871V100ZM363.234 233.007V266.876H330.659V233.007H363.234Z" fill="url(#paint1_linear_2456_11)"/>
<path d="M136 250.647V233.007C149.25 233.007 158.501 230.302 163.754 224.892C169.007 219.404 171.633 210.349 171.633 197.726V163.975C171.633 151.98 172.966 141.905 175.632 133.751C178.376 125.519 182.531 118.934 188.097 113.995C193.664 109.055 200.72 105.488 209.265 103.293C217.811 101.098 227.886 100 239.489 100V127.871C230.394 127.871 223.299 129.204 218.203 131.87C213.107 134.535 209.54 138.691 207.501 144.336C205.541 149.902 204.561 157.036 204.561 165.739V208.546C204.561 214.583 203.66 220.188 201.857 225.363C200.053 230.459 196.721 234.888 191.86 238.652C187 242.415 180.061 245.355 171.045 247.472C162.029 249.588 150.347 250.647 136 250.647ZM239.489 400C227.886 400 217.811 398.902 209.265 396.707C200.72 394.512 193.664 390.945 188.097 386.006C182.531 381.066 178.376 374.481 175.632 366.249C172.966 358.095 171.633 348.02 171.633 336.025V302.156C171.633 289.612 169.007 280.596 163.754 275.108C158.501 269.62 149.25 266.876 136 266.876V249.353C150.347 249.353 162.029 250.412 171.045 252.528C180.061 254.567 187 257.507 191.86 261.348C196.721 265.112 200.053 269.581 201.857 274.755C203.66 279.851 204.561 285.417 204.561 291.454V334.261C204.561 342.885 205.541 349.98 207.501 355.547C209.54 361.192 213.107 365.347 218.203 368.013C223.299 370.757 230.394 372.129 239.489 372.129V400ZM136 266.876V233.007H168.575V266.876H136Z" fill="url(#paint2_linear_2456_11)"/>
<defs>
<linearGradient id="paint0_linear_2456_11" x1="252.255" y1="128" x2="252.255" y2="375" gradientUnits="userSpaceOnUse">
<stop stop-color="#FF002E"/>
<stop offset="1" stop-color="#FAFF00"/>
</linearGradient>
<linearGradient id="paint1_linear_2456_11" x1="311.49" y1="100" x2="311.49" y2="400" gradientUnits="userSpaceOnUse">
<stop stop-color="#914ABC"/>
<stop offset="1" stop-color="#09D37E"/>
</linearGradient>
<linearGradient id="paint2_linear_2456_11" x1="187.744" y1="100" x2="187.744" y2="400" gradientUnits="userSpaceOnUse">
<stop stop-color="#09D3C7"/>
<stop offset="1" stop-color="#0047FF"/>
</linearGradient>
</defs>
</svg>
